<svg viewBox="0 0 24 24" xmlns="http://www.w3.org/2000/svg"><g id="Layer_2" data-name="Layer 2"><path d="m19.5 20h-2.5a1 1 0 0 1 0-2h2.5a.50641.50641 0 0 0 .5-.5v-14a.50641.50641 0 0 0 -.5-.5h-12a.50641.50641 0 0 0 -.5.5v2.5a1 1 0 0 1 -2 0v-2.5a2.50263 2.50263 0 0 1 2.5-2.5h12a2.50263 2.50263 0 0 1 2.5 2.5v14a2.50263 2.50263 0 0 1 -2.5 2.5z"/><path d="m15.5 23h-11a2.50263 2.50263 0 0 1 -2.5-2.5v-13a2.50263 2.50263 0 0 1 2.5-2.5h11a2.50263 2.50263 0 0 1 2.5 2.5v13a2.50263 2.50263 0 0 1 -2.5 2.5zm-11-16a.50065.50065 0 0 0 -.5.5v13a.50065.50065 0 0 0 .5.5h11a.50065.50065 0 0 0 .5-.5v-13a.50065.50065 0 0 0 -.5-.5z"/></g></svg>